<svg width="25" height="27" viewBox="0 0 25 27" fill="none" xmlns="http://www.w3.org/2000/svg">
<g clip-path="url(#clip0_3_290)">
<path d="M22.3958 4.5H2.60415C1.16875 4.5 0 5.76225 0 7.31254V19.6876C0 21.2378 1.16875 22.5 2.60415 22.5H22.3958C23.8312 22.5 24.9999 21.2378 24.9999 19.6876V7.31254C25 5.76225 23.8312 4.5 22.3958 4.5ZM23.9583 19.6875C23.9583 20.6179 23.2573 21.375 22.3958 21.375H2.60415C1.74268 21.375 1.04165 20.6179 1.04165 19.6875V7.31254C1.04165 6.38214 1.74268 5.62504 2.60415 5.62504H22.3958C23.2573 5.62504 23.9583 6.38214 23.9583 7.31254V19.6875H23.9583Z" fill="white"/>
<path d="M24.4792 7.875H0.52085C0.23335 7.875 0 8.12702 0 8.43752V11.8125C0 12.123 0.23335 12.375 0.52085 12.375H24.4792C24.7667 12.375 25 12.123 25 11.8125V8.43752C25 8.12702 24.7667 7.875 24.4792 7.875ZM23.9583 11.25H1.04165V8.99998H23.9583V11.25H23.9583Z" fill="white"/>
<path d="M9.89585 15.75H3.64585C3.35835 15.75 3.125 16.002 3.125 16.3125C3.125 16.623 3.35835 16.875 3.64585 16.875H9.89585C10.1834 16.875 10.4167 16.623 10.4167 16.3125C10.4167 16.002 10.1834 15.75 9.89585 15.75Z" fill="white"/>
<path d="M9.89585 18H3.64585C3.35835 18 3.125 18.252 3.125 18.5625C3.125 18.873 3.35835 19.125 3.64585 19.125H9.89585C10.1834 19.125 10.4167 18.873 10.4167 18.5625C10.4167 18.252 10.1834 18 9.89585 18Z" fill="white"/>
<path d="M20.3125 14.625H19.2709C18.4094 14.625 17.7084 15.3821 17.7084 16.3125V17.4375C17.7084 18.3679 18.4094 19.125 19.2709 19.125H20.3125C21.174 19.125 21.875 18.3679 21.875 17.4375V16.3125C21.875 15.3822 21.174 14.625 20.3125 14.625ZM20.8334 17.4375C20.8334 17.748 20.6 18.0001 20.3125 18.0001H19.2709C18.9834 18.0001 18.75 17.748 18.75 17.4375V16.3126C18.75 16.0021 18.9834 15.75 19.2709 15.75H20.3125C20.6 15.75 20.8334 16.0021 20.8334 16.3126V17.4375Z" fill="white"/>
</g>
<defs>
<clipPath id="clip0_3_290">
<rect width="25" height="27" fill="white"/>
</clipPath>
</defs>
</svg>
